# xmcd
#
# Track frame offsets:
#	150
#	14818
#	33432
#	49277
#	67687
#	87133
#	105911
#	126302
#	140564
#	155794
#	174184
#	190780
#
# Disc length: 2766 seconds
#
# Revision: 1
# Processed by: cddbd v1.5.2PL0 Copyright (c) Steve Scherf et al.
# Submitted via: audiograbber 1.82.02
#
DISCID=9c0acc0c
DTITLE=Jim Brickman - Valentine
DYEAR=2002
DGENRE=New Age
TTITLE0=Jim Brickman - Valentine (Instrumental)
TTITLE1=Jim Brickman - To Hear You Say You Love Me
TTITLE2=Jim Brickman - Escape
TTITLE3=Jim Brickman - Sundown
TTITLE4=Jim Brickman - Reflection
TTITLE5=Jim Brickman - You
TTITLE6=Jim Brickman - Open
TTITLE7=Jim Brickman - Brazil Sunset
TTITLE8=Jim Brickman - Sacred Moment (After J.S. Bach)
TTITLE9=Jim Brickman - Love Of My Life (W - Tom Douglas, Vocal)
TTITLE10=Jim Brickman - Never Alone
TTITLE11=Jim Brickman - Destiny
EXTD=
EXTT0=
EXTT1=
EXTT2=
EXTT3=
EXTT4=
EXTT5=
EXTT6=
EXTT7=
EXTT8=
EXTT9=
EXTT10=
EXTT11=
PLAYORDER=
